<?xml version="1.0" encoding="utf-8"?>
<!-- Generator: Adobe Illustrator 25.2.3, SVG Export Plug-In . SVG Version: 6.00 Build 0)  -->
<svg version="1.1" id="Layer_1" xmlns="http://www.w3.org/2000/svg" xmlns:xlink="http://www.w3.org/1999/xlink" x="0px" y="0px"
	 viewBox="0 0 400 300" style="enable-background:new 0 0 400 300;" xml:space="preserve">
<style type="text/css">
	.st0{clip-path:url(#SVGID_2_);}
	.st1{fill:#4A4A4A;}
	.st2{fill:none;stroke:#F4F3E9;stroke-width:2;}
	.st3{fill:#F4F3E9;}
	.st4{fill:none;stroke:#F4F3E9;}
	.st5{fill:#4A4A4A;stroke:#F4F3E9;stroke-miterlimit:10;}
</style>
<g>
	<g>
		<g>
			<defs>
				<rect id="SVGID_1_" x="-1.4" width="401.4" height="300"/>
			</defs>
			<clipPath id="SVGID_2_">
				<use xlink:href="#SVGID_1_"  style="overflow:visible;"/>
			</clipPath>
			<g class="st0">
				<path class="st1" d="M400,218.7V300H-1.4l-36-81.3V0h272C270,0,302.3,20.1,318,51.9L400,218.7z"/>
				<path class="st2" d="M347.6,187.7l-445.2,3.4V38h306.4c39.9,0,76.4,22.7,94,58.5L347.6,187.7z"/>
				<g>
					<g>
						<circle class="st3" cx="217.1" cy="98.9" r="83"/>
						<circle class="st1" cx="215.8" cy="97.7" r="79.6"/>
					</g>
					<g>
						<circle class="st3" cx="215.8" cy="97.7" r="33"/>
						<circle class="st1" cx="214.5" cy="96.4" r="29.6"/>
					</g>
					<line class="st2" x1="214.9" y1="18.1" x2="214.9" y2="38.5"/>
					<line class="st2" x1="295.4" y1="98.4" x2="274.8" y2="98.4"/>
					<line class="st2" x1="214.9" y1="156.7" x2="214.9" y2="177.2"/>
					<line class="st2" x1="156.8" y1="98.4" x2="136.2" y2="98.4"/>
					<line class="st4" x1="284.1" y1="56.8" x2="266.1" y2="66.9"/>
					<line class="st4" x1="255.3" y1="166.8" x2="244.9" y2="149.1"/>
					<line class="st4" x1="164" y1="126.1" x2="146.2" y2="136.4"/>
					<line class="st4" x1="185.9" y1="46.7" x2="175.6" y2="29"/>
					<line class="st4" x1="254.3" y1="27.6" x2="244" y2="45.4"/>
					<line class="st4" x1="284.4" y1="137.5" x2="266.6" y2="127.1"/>
					<line class="st4" x1="184.9" y1="147.7" x2="174.7" y2="165.5"/>
					<line class="st4" x1="164.3" y1="68.1" x2="146.5" y2="57.9"/>
				</g>
				<g>
					<g>
						<circle class="st3" cx="-21.1" cy="98.9" r="83"/>
						<circle class="st1" cx="-22.3" cy="97.7" r="79.6"/>
					</g>
					<g>
						<circle class="st3" cx="-22.3" cy="97.7" r="33"/>
						<circle class="st1" cx="-23.5" cy="96.4" r="29.6"/>
					</g>
					<line class="st2" x1="-23.2" y1="18.1" x2="-23.2" y2="38.5"/>
					<line class="st2" x1="57.3" y1="98.4" x2="36.7" y2="98.4"/>
					<line class="st2" x1="-23.2" y1="156.7" x2="-23.2" y2="177.2"/>
					<line class="st2" x1="-81.4" y1="98.4" x2="-101.9" y2="98.4"/>
					<line class="st4" x1="45.9" y1="56.8" x2="28.2" y2="66.9"/>
					<line class="st4" x1="17" y1="166.8" x2="6.8" y2="149.1"/>
					<line class="st4" x1="-74.2" y1="126.1" x2="-91.9" y2="136.4"/>
					<line class="st4" x1="-52.2" y1="46.7" x2="-62.6" y2="29"/>
					<line class="st4" x1="16.2" y1="27.6" x2="5.9" y2="45.4"/>
					<line class="st4" x1="46.2" y1="137.5" x2="28.4" y2="127.1"/>
					<line class="st4" x1="-53.1" y1="147.7" x2="-63.4" y2="165.5"/>
					<line class="st4" x1="-73.8" y1="68.1" x2="-91.5" y2="57.9"/>
				</g>
				<rect x="-37.4" y="208.6" class="st3" width="78.5" height="20.2"/>
				<rect x="73.5" y="208.6" class="st3" width="78.5" height="20.2"/>
				<rect x="184.4" y="208.6" class="st3" width="78.5" height="20.2"/>
				<rect x="295.1" y="208.6" class="st3" width="78.5" height="20.2"/>
				<circle class="st3" cx="62.3" cy="264.7" r="12.7"/>
				
					<ellipse transform="matrix(4.531447e-02 -0.999 0.999 4.531447e-02 -205.4753 312.1929)" class="st5" cx="60.6" cy="263.6" rx="12.7" ry="12.7"/>
				<circle class="st3" cx="168.2" cy="264.7" r="12.7"/>
				<circle class="st5" cx="166.4" cy="263.6" r="12.7"/>
				<circle class="st3" cx="277.7" cy="264.7" r="12.7"/>
				<circle class="st5" cx="276" cy="263.6" r="12.7"/>
				<circle class="st3" cx="112.8" cy="264.7" r="12.7"/>
				<circle class="st3" cx="223.6" cy="264.7" r="12.7"/>
				<path class="st2" d="M323.2,284.5H-13.6c-11.8,0-21.4-8.9-21.4-19.8l0,0c0-10.9,9.6-19.8,21.4-19.8h336.7
					c11.8,0,21.4,8.9,21.4,19.8l0,0C344.5,275.6,334.9,284.5,323.2,284.5z"/>
			</g>
		</g>
	</g>
</g>
<rect x="76.1" y="55.3" class="st2" width="6.5" height="34"/>
<rect x="82.5" y="55.3" class="st2" width="6.5" height="34"/>
<rect x="89" y="55.3" class="st2" width="6.5" height="34"/>
<rect x="95.5" y="55.3" class="st2" width="6.5" height="34"/>
<rect x="102" y="55.3" class="st2" width="6.5" height="34"/>
<rect x="108.4" y="55.3" class="st2" width="6.5" height="34"/>
<rect x="76.1" y="97.4" class="st2" width="6.5" height="11.6"/>
<rect x="82.5" y="97.4" class="st2" width="6.5" height="11.6"/>
<rect x="89" y="97.4" class="st2" width="6.5" height="11.6"/>
<rect x="95.5" y="97.4" class="st2" width="6.5" height="11.6"/>
<rect x="102" y="97.4" class="st2" width="6.5" height="11.6"/>
<rect x="108.4" y="97.4" class="st2" width="6.5" height="11.6"/>
<rect x="76.1" y="135.1" class="st2" width="6.5" height="36.4"/>
<rect x="82.5" y="135.1" class="st2" width="6.5" height="36.4"/>
<rect x="89" y="135.1" class="st2" width="6.5" height="36.4"/>
<rect x="95.5" y="135.1" class="st2" width="6.5" height="36.4"/>
<rect x="102" y="135.1" class="st2" width="6.5" height="36.4"/>
<rect x="108.4" y="135.1" class="st2" width="6.5" height="36.4"/>
<ellipse class="st2" cx="95.2" cy="124.3" rx="21.7" ry="4.7"/>
</svg>
