<?xml version="1.0" encoding="utf-8"?>
<!-- Generator: Adobe Illustrator 25.2.3, SVG Export Plug-In . SVG Version: 6.00 Build 0)  -->
<svg version="1.1" id="Layer_1" xmlns="http://www.w3.org/2000/svg" xmlns:xlink="http://www.w3.org/1999/xlink" x="0px" y="0px"
	 viewBox="0 0 369 195.8" style="enable-background:new 0 0 369 195.8;" xml:space="preserve">
<style type="text/css">
	.st0{fill:#4A4A4A;}
	.st1{fill:#F49DF5;}
	.st2{fill:none;stroke:#4A4A4A;stroke-width:2;}
	.st3{fill:#F49DF5;stroke:#4A4A4A;stroke-width:2;}
	.st4{fill:#4A4A4A;stroke:#FFFFFF;stroke-width:2;}
	.st5{fill:#A287EF;stroke:#F4F3E9;stroke-width:2;}
	.st6{fill:#4A4A4A;stroke:#4A4A4A;stroke-width:2;}
	.st7{fill:#A287EF;}
	.st8{fill:#F4F3E9;stroke:#4A4A4A;stroke-width:2;}
	.st9{fill:none;}
	.st10{fill:#F49DF5;stroke:#4A4A4A;stroke-width:2;stroke-miterlimit:10;}
</style>
<g>
	<path class="st0" d="M15.2,5.1H359c5.5,0,10,4.5,10,10v170.5c0,5.5-4.5,10-10,10H15.2c-5.5,0-10-4.5-10-10V15.1
		C5.2,9.5,9.7,5.1,15.2,5.1z"/>
	<path class="st1" d="M12.7,2.1h340.2c5.5,0,9.9,4.4,9.9,9.9v168.8c0,5.5-4.4,9.9-9.9,9.9H12.7c-5.5,0-9.9-4.4-9.9-9.9V12
		C2.8,6.6,7.3,2.1,12.7,2.1z"/>
	<path class="st2" d="M10.9,2.1h343.8c5,0,9,4,9,9v170.5c0,5-4,9-9,9H10.9c-5,0-9-4-9-9V11.1C1.9,6.2,6,2.1,10.9,2.1z"/>
</g>
<path class="st3" d="M256.7,11.6H108.6c-1.7,0-3.1-1.4-3.1-3.1V2.1h154.3v6.4C259.8,10.2,258.4,11.6,256.7,11.6z"/>
<path class="st4" d="M33.8,26.5h298.1c5,0,9,4,9,9v110.7c0,5-4,9-9,9H33.8c-5,0-9-4-9-9V35.5C24.8,30.6,28.8,26.5,33.8,26.5z"/>
<path class="st3" d="M99.4,164.3h166.8c1.2,0,2.3,0.5,3.1,1.4l15.3,18.3c2.2,2.6,0.3,6.6-3.1,6.6H84.1c-3.4,0-5.2-4-3.1-6.6
	l15.3-18.3C97.1,164.8,98.2,164.3,99.4,164.3z"/>
<rect x="24.8" y="77.7" class="st5" width="316.1" height="50"/>
<rect x="159.4" y="180.1" class="st0" width="46.8" height="11.4"/>
<rect x="174.2" y="176.7" class="st0" width="17.1" height="5.7"/>
<rect x="45.2" y="2.1" class="st3" width="45.2" height="14.5"/>
<rect x="274.3" y="2.1" class="st3" width="45.2" height="14.5"/>
<rect x="64.1" y="2.1" class="st6" width="26.3" height="14.5"/>
<rect x="274.3" y="2.1" class="st6" width="26.3" height="14.5"/>
<g>
	<path class="st0" d="M60.4,173.8c0,5.2-4.2,9.4-9.4,9.4s-9.4-4.2-9.4-9.4s4.2-9.4,9.4-9.4S60.4,168.6,60.4,173.8z"/>
	<path class="st7" d="M58.2,172.8c0,4.7-3.8,8.4-8.4,8.4s-8.4-3.8-8.4-8.4s3.8-8.4,8.4-8.4S58.2,168.1,58.2,172.8z"/>
	<path class="st2" d="M58.2,172.8c0,4.7-3.8,8.4-8.4,8.4s-8.4-3.8-8.4-8.4c0-4.7,3.8-8.4,8.4-8.4S58.2,168.1,58.2,172.8z"/>
</g>
<g>
	<path class="st0" d="M326,174.5c0,5.2-4.2,9.4-9.4,9.4c-5.2,0-9.4-4.2-9.4-9.4s4.2-9.4,9.4-9.4C321.8,165,326,169.3,326,174.5z"/>
	<path class="st7" d="M323.5,172.8c0,4.7-3.8,8.4-8.4,8.4c-4.7,0-8.4-3.8-8.4-8.4c0-4.7,3.8-8.4,8.4-8.4
		C319.7,164.3,323.5,168.1,323.5,172.8z"/>
	<path class="st2" d="M323.5,172.8c0,4.7-3.8,8.4-8.4,8.4c-4.7,0-8.4-3.8-8.4-8.4s3.8-8.4,8.4-8.4
		C319.7,164.3,323.5,168.1,323.5,172.8z"/>
</g>
<path class="st0" d="M132.2,103.3c0-9-7.2-16.3-15.9-16.3c-8.8,0-15.9,7.3-15.9,16.3c0,9,7.2,16.3,15.9,16.3
	C125.1,119.6,132.2,112.3,132.2,103.3z"/>
<path class="st8" d="M129.1,100.3c0-9-7.2-16.3-15.9-16.3c-8.8,0-15.9,7.3-15.9,16.3c0,9,7.2,16.3,15.9,16.3
	C121.9,116.7,129.1,109.4,129.1,100.3z"/>
<path class="st0" d="M124.2,102.3c0-5.6-4.3-10-9.6-10c-5.3,0-9.6,4.5-9.6,10c0,5.6,4.3,10,9.6,10
	C119.8,112.3,124.2,107.9,124.2,102.3z"/>
<path class="st8" d="M122.8,100.3c0-5.6-4.3-10-9.6-10c-5.3,0-9.6,4.5-9.6,10c0,5.6,4.3,10,9.6,10
	C118.4,110.4,122.8,105.9,122.8,100.3z"/>
<path class="st0" d="M272.6,103.7c0-9-7.2-16.3-15.9-16.3s-15.9,7.3-15.9,16.3c0,9,7.2,16.3,15.9,16.3S272.6,112.7,272.6,103.7z"/>
<path class="st8" d="M268.4,100.3c0-9-7.2-16.3-15.9-16.3c-8.8,0-15.9,7.3-15.9,16.3c0,9,7.2,16.3,15.9,16.3
	C261.3,116.7,268.4,109.4,268.4,100.3z"/>
<path class="st2" d="M259.8,176.7c0-2.6-1.9-4.5-4.1-4.5c-2.2,0-4.1,1.9-4.1,4.5c0,2.6,1.9,4.5,4.1,4.5
	C257.8,181.2,259.8,179.3,259.8,176.7z"/>
<path class="st2" d="M139.3,176.7c0-2.6-1.9-4.5-4.1-4.5c-2.2,0-4.1,1.9-4.1,4.5c0,2.6,1.9,4.5,4.1,4.5
	C137.4,181.2,139.3,179.3,139.3,176.7z"/>
<path class="st2" d="M234.6,176.7c0-2.6-1.9-4.5-4.1-4.5c-2.2,0-4.1,1.9-4.1,4.5c0,2.6,1.9,4.5,4.1,4.5
	C232.6,181.2,234.6,179.3,234.6,176.7z"/>
<path class="st2" d="M114.1,176.7c0-2.6-1.9-4.5-4.1-4.5c-2.2,0-4.1,1.9-4.1,4.5c0,2.6,1.9,4.5,4.1,4.5
	C112.2,181.2,114.1,179.3,114.1,176.7z"/>
<path class="st0" d="M56.5,114.7h-9.4l-2.2,5.9h-5.2l9.9-25.2h2.2c1.6,0,2.6,0.7,3.2,2.2l9,23h-5.2L56.5,114.7z M48.4,110.5h6.8
	l-3.3-9.1h0L48.4,110.5z"/>
<path class="st0" d="M264.1,102.3c0-5.6-4.3-10-9.6-10c-5.3,0-9.6,4.5-9.6,10c0,5.6,4.3,10,9.6,10
	C259.7,112.3,264.1,107.9,264.1,102.3z"/>
<path class="st8" d="M262.1,100.3c0-5.6-4.3-10-9.6-10c-5.3,0-9.6,4.5-9.6,10c0,5.6,4.3,10,9.6,10
	C257.8,110.4,262.1,105.9,262.1,100.3z"/>
<rect x="148.4" y="88" class="st3" width="68.9" height="28.7"/>
<g>
	<rect x="148.4" y="88" class="st9" width="68.9" height="28.7"/>
</g>
<path class="st0" d="M167.6,88h-19.3v28.7h18.2c1.6-5.2,2.4-10.6,2.4-16.3C169,96.1,168.5,91.9,167.6,88z"/>
<path class="st0" d="M217.2,88H197c-0.9,4-1.4,8.1-1.4,12.4c0,5.7,0.9,11.2,2.4,16.3h19.2V88z"/>
<circle class="st0" cx="16.2" cy="17.1" r="7.8"/>
<circle class="st10" cx="15.7" cy="16.3" r="6.5"/>
<circle class="st0" cx="16.2" cy="174.5" r="7.8"/>
<circle class="st10" cx="15.7" cy="173.7" r="6.5"/>
<circle class="st0" cx="348.6" cy="17.1" r="7.8"/>
<circle class="st10" cx="348" cy="16.3" r="6.5"/>
<circle class="st0" cx="348.6" cy="174.5" r="7.8"/>
<circle class="st10" cx="348" cy="173.7" r="6.5"/>
</svg>
