<svg xmlns="http://www.w3.org/2000/svg" viewBox="0 0 112.86 117.21"><defs><style>.cls-1{fill:#4a4a4a;}</style></defs><g id="Layer_2" data-name="Layer 2"><g id="Layer_1-2" data-name="Layer 1"><polygon class="cls-1" points="0 36.01 0 81.2 16.66 81.2 67.19 117.21 67.19 81.2 67.19 36.01 67.19 0 16.66 36.01 0 36.01"/><path class="cls-1" d="M73,39.49c0,.07,4.61,6.76,4.61,19.11S73.05,77.65,73,77.66l9.69,7.08c.71-1,6.88-9.88,6.88-26.14s-6.17-25.17-6.88-26.13Z"/><path class="cls-1" d="M100.94,12.58l-9.71,7c.1.14,9.63,13.79,9.63,39s-9.53,38.84-9.61,38.95l9.69,7.08c.48-.67,11.92-16.65,11.92-46S101.42,13.25,100.94,12.58Z"/></g></g></svg>