<?xml version="1.0" encoding="utf-8"?>
<!-- Generator: Adobe Illustrator 25.2.3, SVG Export Plug-In . SVG Version: 6.00 Build 0)  -->
<svg version="1.1" id="Layer_1" xmlns="http://www.w3.org/2000/svg" xmlns:xlink="http://www.w3.org/1999/xlink" x="0px" y="0px"
	 viewBox="0 0 721.6 238.1" style="enable-background:new 0 0 721.6 238.1;" xml:space="preserve">
<style type="text/css">
	.st0{fill:#F4F3E9;}
	.st1{fill:#4A4A4A;}
	.st2{fill:#95E5FF;}
	.st3{fill:#F4F3E9;stroke:#4A4A4A;stroke-width:2;stroke-miterlimit:10;}
	.st4{fill:#4A4A4A;stroke:#F4F3E9;stroke-width:2;stroke-miterlimit:10;}
	.st5{fill:none;stroke:#F4F3E9;stroke-width:2;stroke-miterlimit:10;}
	.st6{fill:none;stroke:#F4F3E9;stroke-miterlimit:10;}
	.st7{fill:none;stroke:#95E5FF;stroke-width:2;stroke-miterlimit:10;}
</style>
<g>
	<rect class="st0" width="721.6" height="238.1"/>
</g>
<rect x="81.8" y="47.5" class="st1" width="504.2" height="99"/>
<polygon class="st1" points="81.8,164.5 131.5,164.5 131.5,185.3 91.8,185.3 "/>
<rect x="232.2" y="164.5" class="st1" width="49.7" height="20.8"/>
<rect x="157" y="164.5" class="st1" width="49.7" height="20.8"/>
<polygon class="st1" points="307.3,164.5 357,164.5 347,185.3 307.3,185.3 "/>
<polygon class="st1" points="395.8,164.5 461.3,164.5 461.3,185.3 405.8,185.3 "/>
<polygon class="st1" points="494.8,164.5 560.3,164.5 550.3,185.3 494.8,185.3 "/>
<path class="st1" d="M86.9,42.6c-1.2,0-2.1-0.3-2.8-1c-0.7-0.7-1-1.6-1-2.8h1.7c0,0.7,0.2,1.3,0.6,1.7s0.9,0.6,1.6,0.6h2
	c0.7,0,1.2-0.1,1.6-0.4s0.6-0.7,0.6-1.1v-1c0-0.4-0.1-0.7-0.4-0.9c-0.3-0.3-0.7-0.4-1.2-0.5l-3.3-0.5c-1-0.2-1.7-0.5-2.2-1
	s-0.8-1.1-0.8-1.9v-1c0-0.9,0.3-1.6,1-2.2s1.6-0.8,2.7-0.8h2c0.7,0,1.3,0.1,1.9,0.4s1,0.7,1.3,1.2s0.5,1.1,0.5,1.8H91
	c0-0.6-0.2-1.1-0.5-1.4c-0.5-0.3-0.9-0.5-1.5-0.5h-2c-0.6,0-1.1,0.1-1.5,0.4s-0.6,0.6-0.6,1.1v0.8c0,0.4,0.1,0.7,0.4,1
	s0.7,0.4,1.2,0.5l3.2,0.6c1,0.2,1.8,0.5,2.3,1s0.8,1.1,0.8,1.8v1.2c0,0.9-0.4,1.6-1.1,2.2c-0.7,0.6-1.6,0.8-2.8,0.8L86.9,42.6
	L86.9,42.6z M97.8,31.4h-4v-1.5h9.7v1.5h-4v11.1h-1.7V31.4z M106.6,42.5c-0.4,0-0.8-0.1-1-0.4c-0.2-0.2-0.4-0.6-0.4-1V29.9h8.8v1.5
	h-7.1v3.9h6.6v1.5h-6.6V41h7.1v1.5H106.6z M116.2,29.9h6.3c1,0,1.8,0.3,2.3,0.8c0.6,0.5,0.9,1.3,0.9,2.1v1.3c0,0.6-0.2,1.2-0.6,1.7
	s-0.9,0.8-1.6,1l0,0c0.7,0.4,1.2,1.2,1.6,2.3l1,3.3h-1.8l-1-3.2c-0.2-0.6-0.4-1-0.8-1.3s-0.8-0.5-1.2-0.5h-3.5v5.1h-1.7L116.2,29.9
	L116.2,29.9z M122.1,35.9c0.6,0,1.1-0.2,1.4-0.5c0.4-0.3,0.6-0.8,0.6-1.3v-1.3c0-0.4-0.1-0.8-0.4-1s-0.7-0.4-1.1-0.4H118v4.5H122.1z
	 M129.4,42.5c-0.4,0-0.8-0.1-1-0.4c-0.2-0.2-0.4-0.6-0.4-1V29.9h8.8v1.5h-7.1v3.9h6.6v1.5h-6.6V41h7.1v1.5H129.4z M143,42.6
	c-0.9,0-1.6-0.2-2.3-0.6c-0.7-0.4-1.2-0.9-1.5-1.6c-0.4-0.7-0.5-1.5-0.5-2.4v-3.6c0-0.9,0.2-1.7,0.5-2.4c0.4-0.7,0.9-1.2,1.6-1.6
	c0.7-0.4,1.4-0.6,2.3-0.6h1.9c0.9,0,1.6,0.2,2.3,0.6s1.2,0.9,1.5,1.6c0.4,0.7,0.6,1.5,0.6,2.4V38c0,0.9-0.2,1.7-0.6,2.4
	c-0.4,0.7-0.9,1.2-1.5,1.6c-0.7,0.4-1.4,0.6-2.3,0.6H143z M144.9,41.1c0.8,0,1.5-0.3,2-0.8c0.5-0.6,0.8-1.3,0.8-2.3v-3.6
	c0-0.9-0.3-1.7-0.8-2.3c-0.5-0.6-1.2-0.9-2-0.9H143c-0.8,0-1.5,0.3-2,0.9c-0.5,0.6-0.8,1.3-0.8,2.3V38c0,0.9,0.2,1.7,0.7,2.3
	s1.2,0.8,2,0.8H144.9z"/>
<rect x="159.8" y="79.5" class="st2" width="374" height="45"/>
<rect x="205.1" y="94.5" class="st1" width="164.9" height="15"/>
<circle class="st1" cx="44.5" cy="54.2" r="15.7"/>
<circle class="st3" cx="39" cy="48.3" r="13.4"/>
<circle class="st1" cx="44.5" cy="169.6" r="15.7"/>
<circle class="st3" cx="39" cy="163.7" r="13.4"/>
<circle class="st1" cx="649.1" cy="54.2" r="15.7"/>
<circle class="st3" cx="643.7" cy="48.3" r="13.4"/>
<circle class="st1" cx="649.1" cy="169.6" r="15.7"/>
<circle class="st3" cx="643.7" cy="163.7" r="13.4"/>
<g>
	<circle class="st0" cx="121" cy="97" r="26.7"/>
	<circle class="st4" cx="117.9" cy="92.5" r="26.7"/>
	<g>
		<line class="st5" x1="117.9" y1="65.8" x2="117.9" y2="76.4"/>
		<line class="st5" x1="117.9" y1="111.2" x2="117.9" y2="119.2"/>
	</g>
	<g>
		<line class="st5" x1="144.6" y1="92.5" x2="136.6" y2="92.5"/>
		<line class="st5" x1="99.3" y1="92.5" x2="91.2" y2="92.5"/>
	</g>
	<g>
		<line class="st6" x1="104.6" y1="69.4" x2="108.6" y2="76.3"/>
		<line class="st6" x1="127.2" y1="108.7" x2="131.3" y2="115.6"/>
	</g>
	<g>
		<line class="st6" x1="141" y1="79.1" x2="134.1" y2="83.2"/>
		<line class="st6" x1="101.8" y1="101.8" x2="94.8" y2="105.9"/>
	</g>
	<g>
		<line class="st6" x1="94.8" y1="79.1" x2="101.8" y2="83.2"/>
		<line class="st6" x1="134.1" y1="101.8" x2="141" y2="105.9"/>
	</g>
	<g>
		<line class="st6" x1="131.3" y1="69.4" x2="127.2" y2="76.3"/>
		<line class="st6" x1="108.6" y1="108.7" x2="104.6" y2="115.6"/>
	</g>
</g>
<circle class="st1" cx="431.7" cy="102" r="32.9"/>
<g>
	<circle class="st1" cx="425.6" cy="97" r="26.7"/>
	<circle class="st4" cx="422.5" cy="92.5" r="26.7"/>
	<g>
		<g>
			<line class="st7" x1="429.9" y1="66.9" x2="427" y2="77"/>
			<line class="st7" x1="417.3" y1="110.5" x2="415" y2="118.1"/>
		</g>
		<g>
			<line class="st5" x1="448.1" y1="99.9" x2="440.4" y2="97.7"/>
			<line class="st5" x1="404.6" y1="87.3" x2="396.8" y2="85.1"/>
		</g>
		<g>
			<line class="st6" x1="416.1" y1="66.6" x2="418" y2="74.4"/>
			<line class="st6" x1="426.9" y1="110.6" x2="428.9" y2="118.4"/>
		</g>
		<g>
			<line class="st6" x1="448.4" y1="86.1" x2="440.6" y2="88.1"/>
			<line class="st6" x1="404.4" y1="96.9" x2="396.6" y2="98.9"/>
		</g>
		<g>
			<line class="st6" x1="404" y1="73.2" x2="409.6" y2="79.1"/>
			<line class="st6" x1="435.4" y1="105.9" x2="440.9" y2="111.8"/>
		</g>
		<g>
			<line class="st6" x1="441.8" y1="74" x2="435.9" y2="79.5"/>
			<line class="st6" x1="409" y1="105.5" x2="403.3" y2="111"/>
		</g>
	</g>
</g>
<circle class="st1" cx="510.9" cy="102" r="32.9"/>
<g>
	<circle class="st1" cx="504.8" cy="97" r="26.7"/>
	<circle class="st4" cx="501.7" cy="92.5" r="26.7"/>
	<g>
		<g>
			<line class="st7" x1="509.1" y1="66.9" x2="506.1" y2="77"/>
			<line class="st7" x1="496.4" y1="110.5" x2="494.2" y2="118.1"/>
		</g>
		<g>
			<line class="st5" x1="527.3" y1="99.9" x2="519.6" y2="97.7"/>
			<line class="st5" x1="483.8" y1="87.3" x2="476" y2="85.1"/>
		</g>
		<g>
			<line class="st6" x1="495.3" y1="66.6" x2="497.2" y2="74.4"/>
			<line class="st6" x1="506.1" y1="110.6" x2="508.1" y2="118.4"/>
		</g>
		<g>
			<line class="st6" x1="527.6" y1="86.1" x2="519.8" y2="88.1"/>
			<line class="st6" x1="483.6" y1="96.9" x2="475.7" y2="98.9"/>
		</g>
		<g>
			<line class="st6" x1="483.2" y1="73.2" x2="488.8" y2="79.1"/>
			<line class="st6" x1="514.6" y1="105.9" x2="520.1" y2="111.8"/>
		</g>
		<g>
			<line class="st6" x1="521" y1="74" x2="515.1" y2="79.5"/>
			<line class="st6" x1="488.2" y1="105.5" x2="482.4" y2="111"/>
		</g>
	</g>
</g>
<path class="st1" d="M190.4,112.1h-13.6c-1.7,0-3-1.3-3-3V95.5c0-1.7,1.3-3,3-3h13.6c1.6,0,3,1.3,3,3v13.6
	C193.4,110.8,192.1,112.1,190.4,112.1z"/>
</svg>
