<?xml version="1.0" encoding="utf-8"?>
<!-- Generator: Adobe Illustrator 25.2.3, SVG Export Plug-In . SVG Version: 6.00 Build 0)  -->
<svg version="1.1" id="Layer_1" xmlns="http://www.w3.org/2000/svg" xmlns:xlink="http://www.w3.org/1999/xlink" x="0px" y="0px"
	 viewBox="0 0 400 400" style="enable-background:new 0 0 400 400;" xml:space="preserve">
<style type="text/css">
	.st0{fill:#4A4A4A;}
	.st1{fill:#A287EF;stroke:#4A4A4A;stroke-width:4;stroke-miterlimit:10;}
	.st2{fill:#A287EF;}
	.st3{fill:none;stroke:#4A4A4A;stroke-width:4;stroke-miterlimit:10;}
</style>
<g>
	<path class="st0" d="M254.5,118.9c-16.2,21.9-22.9,60.8-22.9,60.8l13.4-77.9l33.4,5.8C278.4,107.7,264.8,105,254.5,118.9z"/>
	<path class="st0" d="M239.4,286.3c-11.2-24.8-41.9-49.7-41.9-49.7l61.4,49.7l-21.3,26.4C237.6,312.7,246.5,302.1,239.4,286.3z"/>
	<path class="st0" d="M105.2,195.3c27,3.3,64.2-9.9,64.2-9.9L95,211.9l-11.4-32C83.6,179.9,88,193.1,105.2,195.3z"/>
	<g>
		<polygon class="st1" points="222.5,206.5 174.2,200.5 170.1,31 267.8,43 		"/>
		<polygon class="st1" points="184.4,223 213.8,184.1 362.7,265.3 303.4,343.9 		"/>
		<polygon class="st1" points="187.8,180.9 206.8,225.7 62,314.1 23.6,223.4 		"/>
		<path class="st1" d="M173.4,155.5l-21.8,27.4c-18,22.6-4.7,56.2,23.9,60.5l34.6,5.1c28.6,4.2,51-24,40.4-50.9l-12.9-32.6
			C227.1,138.2,191.4,132.9,173.4,155.5z"/>
		<path class="st0" d="M226.8,15C124.1,2.3,30.6,75.3,17.9,177.9s60.3,196.3,162.9,209C283.5,399.6,377,326.7,389.7,224
			C402.4,121.3,329.5,27.7,226.8,15z M190.8,305.9c-57.9-7.2-99.1-59.9-91.9-117.9s60-99.2,117.9-92S315.9,156,308.7,214
			S248.8,313.1,190.8,305.9z"/>
		<path class="st1" d="M222.1,11.3C117.9-1.6,23.1,72.4,10.2,176.5s61.1,199,165.3,211.9c104.2,12.9,199-61.1,211.9-165.3
			C400.2,119,326.3,24.2,222.1,11.3z M185.6,306.2c-58.7-7.3-100.5-60.8-93.2-119.5c7.3-58.7,60.8-100.5,119.5-93.2
			c58.7,7.3,100.5,60.8,93.2,119.5C297.9,271.8,244.4,313.5,185.6,306.2z"/>
		<ellipse transform="matrix(0.1466 -0.9892 0.9892 0.1466 -28.3883 367.8821)" class="st0" cx="199" cy="200.4" rx="40" ry="40"/>
		
			<ellipse transform="matrix(0.1466 -0.9892 0.9892 0.1466 -28.6949 365.5386)" class="st2" cx="197.5" cy="199.4" rx="35.6" ry="35.6"/>
		<path class="st3" d="M220.5,10.8C117.2-1.9,23.1,72.1,10.2,176.3S70.6,375.2,173.8,388s197.3-61.3,210.2-165.5
			C396.9,118.4,323.7,23.6,220.5,10.8z M184,305.8c-58.2-7.2-99.6-60.7-92.3-119.4C99,127.6,152.1,85.8,210.3,93
			c58.2,7.2,99.6,60.7,92.3,119.4S242.2,313,184,305.8z"/>
	</g>
</g>
<g>
	<path class="st1" d="M208.2,367.8c-4,0-7.3-3.1-7.6-7.1c-0.3-4.2,2.9-7.8,7-8.1c4.8-0.3,9.7-0.9,14.4-1.7c4.1-0.7,8.1,2.1,8.8,6.2
		c0.7,4.1-2.1,8.1-6.2,8.8c-5.2,0.9-10.6,1.5-15.9,1.9C208.5,367.8,208.3,367.8,208.2,367.8z M177.7,367c-0.3,0-0.6,0-0.9-0.1
		l-0.4,0c-5.2-0.6-10.5-1.6-15.7-2.7c-4.1-0.9-6.7-5-5.8-9.1c0.9-4.1,5-6.7,9.1-5.8c4.7,1,9.5,1.9,14.3,2.5l0.2,0
		c4.2,0.5,7.2,4.2,6.7,8.4C184.8,364.2,181.5,367,177.7,367z M252.8,358c-3.1,0-6-1.9-7.1-4.9c-1.5-3.9,0.5-8.3,4.4-9.8
		c4.5-1.7,9-3.7,13.3-5.8c3.8-1.9,8.3-0.3,10.2,3.5c1.9,3.8,0.3,8.3-3.5,10.2c-4.8,2.3-9.7,4.5-14.7,6.4
		C254.6,357.9,253.7,358,252.8,358z M133.3,355c-1,0-2-0.2-3-0.6c-4.9-2.1-9.7-4.5-14.3-7.1c-3.7-2-5-6.7-2.9-10.3
		c2-3.7,6.7-5,10.3-2.9c4.2,2.4,8.6,4.5,13,6.5c3.8,1.7,5.6,6.2,3.9,10C139,353.3,136.2,355,133.3,355z M292.8,336
		c-2.3,0-4.6-1-6.1-3c-2.5-3.3-1.9-8.1,1.5-10.6c3.9-2.9,7.6-6,11.2-9.3c3.1-2.8,7.9-2.6,10.7,0.5c2.8,3.1,2.6,7.9-0.5,10.7
		c-3.9,3.6-8.1,7-12.3,10.2C296,335.5,294.4,336,292.8,336z M94.5,330.8c-1.7,0-3.5-0.6-4.9-1.8c-4.1-3.4-8-7.1-11.7-10.9
		c-2.9-3-2.9-7.8,0.1-10.7s7.8-2.9,10.7,0.1c3.4,3.5,7,6.8,10.7,9.9c3.2,2.7,3.6,7.5,0.9,10.7C98.8,329.9,96.7,330.8,94.5,330.8z
		 M325,303.6c-1.6,0-3.2-0.5-4.5-1.5c-3.4-2.5-4.1-7.3-1.6-10.6c2.9-3.9,5.6-7.9,8.1-12.1c2.2-3.6,6.8-4.7,10.4-2.6
		c3.6,2.2,4.7,6.8,2.6,10.4c-2.8,4.5-5.8,9-8.9,13.3C329.6,302.5,327.3,303.6,325,303.6z M64.2,296.7c-2.5,0-4.9-1.2-6.3-3.4
		c-2.9-4.4-5.7-9-8.2-13.7c-2-3.7-0.6-8.3,3.1-10.3c3.7-2,8.3-0.6,10.3,3.1c2.3,4.3,4.8,8.5,7.5,12.5c2.3,3.5,1.4,8.2-2.1,10.5
		C67.1,296.3,65.6,296.7,64.2,296.7z M346.8,263.4c-0.9,0-1.8-0.2-2.6-0.5c-3.9-1.5-5.9-5.8-4.5-9.8c1.7-4.5,3.2-9.2,4.4-13.9
		c1.1-4.1,5.2-6.5,9.3-5.4c4.1,1.1,6.5,5.2,5.4,9.3c-1.4,5.1-3,10.3-4.9,15.2C352.8,261.5,349.9,263.4,346.8,263.4z M44.6,255.4
		c-3.2,0-6.2-2.1-7.3-5.3c-1.6-5.1-2.9-10.3-4-15.5c-0.9-4.1,1.8-8.1,5.9-9c4.1-0.9,8.1,1.8,9,5.9c1,4.7,2.2,9.5,3.7,14.1
		c1.2,4-1,8.3-5,9.5C46.1,255.3,45.3,255.4,44.6,255.4z M356.5,218.8c-0.2,0-0.4,0-0.6,0c-4.2-0.3-7.3-4-7-8.1
		c0.3-3.9,0.4-7.9,0.4-11.8c0-0.9,0-1.9,0-2.8c-0.1-4.2,3.3-7.7,7.5-7.7c4.2-0.1,7.7,3.3,7.7,7.5c0,1,0,2,0,3.1
		c0,4.3-0.2,8.6-0.5,12.9C363.8,215.8,360.5,218.8,356.5,218.8z M37.3,210.3c-4.1,0-7.5-3.3-7.6-7.5c0-1,0-2,0-2.9
		c0-4.3,0.2-8.7,0.5-13.1c0.3-4.2,4-7.3,8.2-7c4.2,0.3,7.3,4,7,8.2c-0.3,4-0.5,8-0.5,11.9c0,0.9,0,1.8,0,2.7
		c0.1,4.2-3.3,7.7-7.5,7.7C37.4,210.3,37.4,210.3,37.3,210.3z M353.5,173.2c-3.5,0-6.7-2.5-7.4-6c-1-4.7-2.2-9.5-3.7-14.1
		c-1.2-4,1-8.3,5-9.5c4-1.3,8.3,1,9.5,5c1.6,5.1,2.9,10.3,4,15.5c0.9,4.1-1.8,8.1-5.9,9C354.6,173.1,354.1,173.2,353.5,173.2z
		 M42.9,165c-0.7,0-1.3-0.1-2-0.3c-4.1-1.1-6.5-5.3-5.4-9.3c1.4-5.1,3-10.3,4.9-15.2c1.5-3.9,5.8-5.9,9.8-4.5
		c3.9,1.5,5.9,5.8,4.5,9.8c-1.7,4.5-3.2,9.2-4.4,13.9C49.3,162.8,46.3,165,42.9,165z M337.9,130.3c-2.7,0-5.3-1.5-6.7-4
		c-2.3-4.3-4.8-8.5-7.5-12.5c-2.3-3.5-1.4-8.2,2.1-10.5c3.5-2.3,8.2-1.4,10.5,2.1c2.9,4.4,5.7,9,8.2,13.7c2,3.7,0.6,8.3-3.1,10.3
		C340.3,130,339.1,130.3,337.9,130.3z M60.9,123c-1.3,0-2.7-0.4-3.9-1.1c-3.6-2.2-4.7-6.9-2.5-10.4c2.8-4.5,5.8-9,8.9-13.3
		c2.5-3.4,7.3-4.1,10.6-1.5c3.4,2.5,4.1,7.3,1.5,10.6c-2.9,3.9-5.6,7.9-8.1,12.1C65.9,121.7,63.4,123,60.9,123z M310.9,93.5
		c-2,0-3.9-0.8-5.4-2.3c-3.4-3.5-7-6.8-10.7-9.9c-3.2-2.7-3.6-7.5-0.9-10.7c2.7-3.2,7.5-3.6,10.7-0.9c4.1,3.4,8,7.1,11.7,10.9
		c2.9,3,2.9,7.8-0.1,10.7C314.7,92.7,312.8,93.5,310.9,93.5z M89.9,87.7c-2.1,0-4.1-0.8-5.6-2.5c-2.8-3.1-2.6-7.9,0.5-10.7
		c3.9-3.6,8.1-7,12.3-10.2c3.4-2.5,8.1-1.9,10.6,1.5c2.5,3.4,1.9,8.1-1.5,10.6c-3.9,2.9-7.6,6-11.2,9.3C93.6,87,91.7,87.7,89.9,87.7
		z M274.5,65.7c-1.2,0-2.5-0.3-3.7-1c-4.2-2.3-8.6-4.5-13-6.4c-3.8-1.7-5.6-6.2-3.9-10c1.7-3.8,6.2-5.6,10-3.9
		c4.9,2.1,9.7,4.5,14.4,7.1c3.7,2,5,6.7,2.9,10.3C279.8,64.3,277.2,65.7,274.5,65.7z M127.7,62c-2.8,0-5.5-1.6-6.8-4.3
		c-1.8-3.8-0.3-8.3,3.5-10.2c4.8-2.3,9.7-4.5,14.7-6.3c3.9-1.5,8.3,0.5,9.8,4.4c1.5,3.9-0.5,8.3-4.4,9.8c-4.5,1.7-9,3.6-13.3,5.8
		C129.9,61.7,128.8,62,127.7,62z M231.9,49.5c-0.5,0-1.1-0.1-1.6-0.2c-4.7-1-9.4-1.9-14.2-2.4l-0.2,0c-4.2-0.5-7.1-4.3-6.6-8.5
		c0.5-4.2,4.3-7.1,8.5-6.6l0.1,0c5.3,0.7,10.5,1.6,15.7,2.7c4.1,0.9,6.7,5,5.8,9.1C238.5,47.1,235.3,49.5,231.9,49.5z M171.1,48
		c-3.6,0-6.9-2.6-7.5-6.3c-0.7-4.1,2.1-8.1,6.2-8.8c5.2-0.9,10.6-1.5,15.9-1.9c4.2-0.3,7.8,2.9,8.1,7c0.3,4.2-2.9,7.8-7,8.1
		c-4.8,0.3-9.7,0.9-14.4,1.7C172,47.9,171.5,48,171.1,48z"/>
</g>
</svg>
