<?xml version="1.0" encoding="utf-8"?>
<!-- Generator: Adobe Illustrator 25.2.3, SVG Export Plug-In . SVG Version: 6.00 Build 0)  -->
<svg version="1.1" id="Layer_1" xmlns="http://www.w3.org/2000/svg" xmlns:xlink="http://www.w3.org/1999/xlink" x="0px" y="0px"
	 viewBox="0 0 378 291" style="enable-background:new 0 0 378 291;" xml:space="preserve">
<style type="text/css">
	.st0{fill:#FFFFFF;}
	.st1{fill:#A287EF;}
	.st2{fill:#4A4A4A;}
</style>
<g>
	<path class="st0" d="M0,17.1v1.6c4-0.6,8.1-1.1,12.2-1.6H0z"/>
	<g>
		<path class="st1" d="M-0.9,129.7v27.9L18.5,291h51.4l23.5-160.8c-15.5-3.8-31.6-5.8-48.2-5.8C29.3,124.4,13.9,126.2-0.9,129.7z"/>
		<path class="st1" d="M116.4,291h95.2l30.5-19.4c-8.7-28.6-23.3-54.6-42.4-76.5L116.4,291z"/>
		<path class="st1" d="M45.1,19C29.4,19,14,20.2-1,22.5v65.2v38.1c14.8-3.4,30.3-5.2,46.1-5.2c16.8,0,33.1,2,48.8,5.8
			c42.6,10.3,80.2,33.7,108.3,65.9c19.3,22.1,34.2,48.3,43.2,77.2c2.2,7,4,14.2,5.4,21.4h97.8C329.9,137.7,201.2,19,45.1,19z"/>
	</g>
	<g>
		<path class="st2" d="M79,18.1c-11.1-1.2-22.4-1.9-33.9-1.9s-22.8,0.7-33.9,1.9C7.1,18.6,3,19.1-1,19.7v1.9v1.9
			C14,21.2,29.4,20,45.1,20c156.1,0,284.8,118.7,303.6,272h1.8h0.1h1.8C335.1,147.9,221.6,33.9,79,18.1z"/>
		<path class="st2" d="M244.8,270.6c2,6.7,3.8,13.5,5.2,20.4h1.9c-1.5-7.3-3.3-14.4-5.4-21.4L244.8,270.6z"/>
		<path class="st2" d="M203.2,192.4c-28.1-32.1-65.7-55.6-108.3-65.9v-0.1c-15.7-3.8-32-5.8-48.8-5.8c-15.8,0-31.3,1.8-46.1,5.2v1.9
			v1h-0.1l-0.8,0.2v28.7L18.6,292h53.1l23.6-161.4c41.1,10.1,77.3,32.8,104.6,63.8L115.2,292h97.7l30.4-19.4
			c1.9,6.1,3.5,12.1,4.7,18.4h1.9c-1.4-6.9-3.5-21.4-3.5-21.4C237.4,240.7,222.6,214.5,203.2,192.4z M46.1,122.5L46.1,122.5l0.1,0.9
			h-0.1V122.5z M70,290H20.4L1.1,157.5v-27c14.6-3.4,29.7-5.1,45.1-5.1c15.9,0,31.7,1.9,47.1,5.6L70,290z M212.3,290h-92.7
			l81.1-93.4c18.8,21.9,32.7,46.9,41.2,74.5L212.3,290z"/>
		<polygon class="st2" points="244.3,273.4 246.6,273.4 250.6,291 249.1,291.4 		"/>
	</g>
</g>
</svg>
